<?xml version="1.0" encoding="UTF-8"?>
<svg id="keys" xmlns="http://www.w3.org/2000/svg" version="1.1" viewBox="0 0 128 128">
  <defs>
    <style>
      .cls-1 {
        fill: #686868;
        stroke: #686868;
        stroke-miterlimit: 10;
        stroke-width: 3px;
      }

      .cls-2 {
        fill: #969696;
        stroke-width: 0px;
      }
    </style>
  </defs>
  <rect class="cls-2" width="128" height="127.6"/>
  <polygon class="cls-1" points="96 1.5 85 1.5 85 73.1 96 73.1 96 127.6 96 127.6 96 73.1 106 73.1 106 1.5 98 1.5 96 1.5"/>
  <polygon class="cls-1" points="64 1.5 53 1.5 53 73.1 64 73.1 64 127.6 64 127.6 64 73.1 74 73.1 74 1.5 66 1.5 64 1.5"/>
  <polygon class="cls-1" points="32 1.5 21 1.5 21 73.1 32 73.1 32 127.6 32 127.6 32 73.1 42 73.1 42 1.5 34 1.5 32 1.5"/>
</svg>