<?xml version="1.0" encoding="UTF-8"?>
<svg id="keys" xmlns="http://www.w3.org/2000/svg" version="1.1" viewBox="0 0 128 128">
  <defs>
    <style>
      .cls-1 {
        fill: none;
        stroke: #fff;
        stroke-miterlimit: 10;
      }

      .cls-2 {
        fill: #686868;
      }

      .cls-2, .cls-3 {
        stroke-width: 0px;
      }

      .cls-3 {
        fill: #fff;
      }
    </style>
  </defs>
  <g>
    <rect class="cls-2" x=".5" y=".5" width="127" height="127"/>
    <path class="cls-3" d="M127,1v126H1V1h126M128,0H0v128h128V0h0Z"/>
  </g>
  <polygon class="cls-1" points="96 .5 85 .5 85 73.1 96 73.1 96 127.6 96 127.6 96 73.1 106 73.1 106 .5 98 .5 96 .5"/>
  <polygon class="cls-1" points="64 .5 53 .5 53 73.1 64 73.1 64 127.6 64 127.6 64 73.1 74 73.1 74 .5 66 .5 64 .5"/>
  <polygon class="cls-1" points="32 .5 21 .5 21 73.1 32 73.1 32 127.6 32 127.6 32 73.1 42 73.1 42 .5 34 .5 32 .5"/>
</svg>