<?xml version="1.0" encoding="UTF-8"?>
<svg id="keys" xmlns="http://www.w3.org/2000/svg" version="1.1" viewBox="0 0 128 128">
  <defs>
    <style>
      .cls-1 {
        fill: none;
        stroke: #fff;
        stroke-miterlimit: 10;
        stroke-width: 3px;
      }

      .cls-2 {
        fill: #686868;
      }

      .cls-2, .cls-3 {
        stroke-width: 0px;
      }

      .cls-3 {
        fill: #fff;
      }
    </style>
  </defs>
  <g>
    <rect class="cls-2" x="2" y="2" width="124" height="124"/>
    <path class="cls-3" d="M124.5,3.5v121H3.5V3.5h121M127.5.5H.5v127h127V.5h0Z"/>
  </g>
  <polygon class="cls-1" points="96 1.5 85 1.5 85 73.1 96 73.1 96 127.6 96 127.6 96 73.1 106 73.1 106 1.5 98 1.5 96 1.5"/>
  <polygon class="cls-1" points="64 1.5 53 1.5 53 73.1 64 73.1 64 127.6 64 127.6 64 73.1 74 73.1 74 1.5 66 1.5 64 1.5"/>
  <polygon class="cls-1" points="32 1.5 21 1.5 21 73.1 32 73.1 32 127.6 32 127.6 32 73.1 42 73.1 42 1.5 34 1.5 32 1.5"/>
</svg>